<svg width="16" height="16" viewBox="0 0 16 16" fill="none" xmlns="http://www.w3.org/2000/svg">
<circle cx="8" cy="8" r="8" fill="#5C78FC"/>
<path d="M9.13855 5C9.45181 5 9.73795 5.06395 9.99699 5.19186C10.262 5.31395 10.4699 5.48837 10.6205 5.71512C10.7771 5.94186 10.8554 6.19477 10.8554 6.47384C10.8554 7.21221 10.509 7.67733 9.81627 7.86919V7.90407C10.6054 8.07849 11 8.57849 11 9.40407C11 9.71802 10.9187 9.99709 10.756 10.2413C10.5994 10.4797 10.3825 10.6657 10.1054 10.7994C9.82831 10.9331 9.5241 11 9.19277 11H5V5H9.13855ZM6.99699 7.33721H8.37048C8.50301 7.33721 8.61145 7.2936 8.69578 7.2064C8.78614 7.11337 8.83133 7 8.83133 6.86628V6.77907C8.83133 6.65116 8.78614 6.5436 8.69578 6.4564C8.60542 6.36337 8.49699 6.31686 8.37048 6.31686H6.99699V7.33721ZM6.99699 9.60465H8.51506C8.64759 9.60465 8.75602 9.56105 8.84036 9.47384C8.93072 9.38081 8.9759 9.26744 8.9759 9.13372V9.04651C8.9759 8.91279 8.93072 8.80233 8.84036 8.71512C8.75602 8.62209 8.64759 8.57558 8.51506 8.57558H6.99699V9.60465Z" fill="white"/>
</svg>
